<svg width="71" height="70" viewBox="0 0 71 70" fill="none" xmlns="http://www.w3.org/2000/svg">
<circle cx="35.5" cy="35" r="34.5" stroke="white"/>
<path fill-rule="evenodd" clip-rule="evenodd" d="M27.5 23C27.2791 23 27.1 23.1791 27.1 23.4V46.6C27.1 46.8209 27.2791 47 27.5 47H30.7C30.9209 47 31.1 46.8209 31.1 46.6V23.4C31.1 23.1791 30.9209 23 30.7 23H27.5ZM40.3 23C40.0791 23 39.9 23.1791 39.9 23.4V46.6C39.9 46.8209 40.0791 47 40.3 47H43.5C43.7209 47 43.9 46.8209 43.9 46.6V23.4C43.9 23.1791 43.7209 23 43.5 23H40.3Z" fill="white"/>
</svg>
