<svg width="24" height="20" viewBox="0 0 24 20" fill="none" xmlns="http://www.w3.org/2000/svg">
<path fill-rule="evenodd" clip-rule="evenodd" d="M19.8395 0C20.1915 0 20.4768 0.280986 20.4768 0.627599C20.4768 0.942702 20.241 1.20357 19.9337 1.24839L19.8395 1.2552H0.637256C0.285309 1.2552 0 0.974213 0 0.627599C0 0.312496 0.235793 0.0516307 0.543087 0.00680479L0.637256 0H19.8395ZM19.8395 7.62193C20.1915 7.62193 20.4768 7.90291 20.4768 8.24953C20.4768 8.56463 20.241 8.8255 19.9337 8.87032L19.8395 8.87713H0.637256C0.285309 8.87713 0 8.59614 0 8.24953C0 7.93442 0.235793 7.67356 0.543087 7.62873L0.637256 7.62193H19.8395ZM19.1994 19.3648C19.1994 19.7154 19.4862 20 19.8395 20C20.1928 20 20.4796 19.7154 20.4796 19.3648V16.5066H23.3599C23.7132 16.5066 24 16.2221 24 15.8715C24 15.5208 23.7132 15.2363 23.3599 15.2363H20.4796V12.3781C20.4796 12.0275 20.1928 11.7429 19.8395 11.7429C19.4862 11.7429 19.1994 12.0275 19.1994 12.3781V15.2363H16.3191C15.9658 15.2363 15.679 15.5208 15.679 15.8715C15.679 16.2221 15.9658 16.5066 16.3191 16.5066H19.1994V19.3648ZM12.3186 15.2439C12.6706 15.2439 12.9559 15.5248 12.9559 15.8715C12.9559 16.1866 12.7201 16.4474 12.4128 16.4923L12.3186 16.4991H0.637256C0.285309 16.4991 0 16.2181 0 15.8715C0 15.5564 0.235793 15.2955 0.543087 15.2507L0.637256 15.2439H12.3186Z" fill="white"/>
</svg>
